<svg xmlns="http://www.w3.org/2000/svg" width="120" height="45" viewBox="-197.5 -76 120 45"><path fill="none" d="M-171.797-69.555h12.812v12.812h-12.812zM-171.797-50.258h12.812v12.812h-12.812z"/><path fill="#27AAE1" d="M-152.5-58.383v-11.172c0-1.797-.625-3.281-1.875-4.531-1.25-1.25-2.734-1.875-4.531-1.875h-12.891v6.406h-6.406v38.516h19.296c1.797 0 3.281-.626 4.531-1.875 1.25-1.25 1.875-2.735 1.875-4.531v-11.25c0-1.796-.625-3.281-1.875-4.531-.078-.077-.234-.234-.312-.312.078-.078.234-.156.312-.235 1.251-1.251 1.876-2.813 1.876-4.61zm-6.407 20.937h-12.891v-12.812h12.812l.079 12.812zm0-19.219h-12.891v-12.891h12.812l.079 12.891z"/><path fill="#F15A29" d="M-191.094-75.961c-1.797 0-3.281.625-4.531 1.875-1.25 1.25-1.875 2.734-1.875 4.531v11.25c0 .703.156 1.953.859 3.125.625 1.172 1.406 1.641 1.406 1.641s-.938.781-1.484 1.797c-.547 1.093-.781 2.188-.781 2.969v11.25c0 1.797.625 3.36 1.875 4.532 1.25 1.25 2.734 1.875 4.531 1.875v-19.218h12.812v-6.406h-12.812v-12.812h12.812v-6.406h-12.812v-.003z"/><path fill="#FFF" d="M-178.203-75.961h6.406v6.406h-6.406z"/><g fill="#FFF"><path d="M-128.673-54.399c-.625 0-1.094-.234-1.562-.625-.391-.391-.626-.938-.626-1.485v-12.968h2.188v12.968h4.297v-12.968h2.188v12.968c0 .625-.235 1.094-.626 1.485-.39.391-.937.625-1.484.625h-4.375zM-141.563-35.024v-15.078h6.485c.624 0 1.092.234 1.562.625.391.391.624.938.624 1.562v3.75c0 .626-.233 1.094-.624 1.562l-.079.079.079.078c.391.391.624.938.624 1.485v3.75c0 .625-.233 1.094-.624 1.562-.391.391-.938.625-1.562.625h-6.485zm6.485-8.594v-4.297h-4.297v4.297h4.297zm0 6.484v-4.297h-4.297v4.297h4.297zM-128.595-35.024c-.624 0-1.094-.234-1.562-.625-.391-.39-.624-.938-.624-1.562v-12.89h2.187v12.968h4.297v-12.968h2.188v12.968c0 .625-.235 1.094-.625 1.562-.391.391-.937.625-1.485.625l-4.376-.078zM-120.001-35.024v-15.078h2.188l5.391 10.781v-10.781h2.187v15.078h-2.187l-5.391-10.781v10.781h-2.188zM-108.125-35.024v-15.078h6.483c.625 0 1.094.234 1.485.625.468.391.625.938.625 1.562v10.781c0 .625-.235 1.094-.625 1.562-.391.391-.937.625-1.485.625l-6.483-.077zm6.405-2.11v-10.781h-4.297v10.781h4.297z"/></g><path fill="#FFF" d="M-139.375-69.555c-.626 0-1.094.235-1.485.625-.468.39-.625.937-.625 1.483v3.75c0 .235.078.704.312 1.094.235.391.469.547.469.547s-.312.234-.469.625c-.155.39-.234.781-.234 1.015v3.75c0 .625.234 1.094.625 1.562.391.391.938.625 1.484.625V-60.964h4.375v-2.187h-4.375v-4.297H-132.735v-2.187h-6.641v.08zM-107.111-54.399c-.624 0-1.094-.234-1.562-.625-.391-.391-.624-.938-.624-1.485v-12.968h2.186v12.968h6.485v2.188h-6.485M-117.97-54.399c-.624 0-1.092-.234-1.562-.625-.391-.391-.625-.938-.625-1.485v-12.968h2.187v12.968h6.485v2.188h-6.485M-95.235-35.024c-.625 0-1.094-.234-1.562-.625-.391-.39-.625-.938-.625-1.562v-12.89h2.188v12.968h6.483v2.188h-6.483M-80.158-47.993h2.189v-2.109h-6.485c-.624 0-1.094.234-1.485.625-.468.391-.624.938-.624 1.485v3.75c0 .234.078.625.313 1.094.233.391.469.546.469.546s-.313.235-.469.625c-.157.391-.235.781-.235 1.016V-37.133c0 .625.235 1.094.625 1.562.39.391.937.625 1.562.625h6.483v-2.188h-6.483V-41.431H-80v-2.188h-4.297v-4.375h4.139v.001z"/><g fill="#FFF"><path d="M-128.673-54.399c-.625 0-1.094-.234-1.562-.625-.391-.391-.626-.938-.626-1.485v-12.968h2.188v12.968h4.297v-12.968h2.188v12.968c0 .625-.235 1.094-.626 1.485-.39.391-.937.625-1.484.625h-4.375zM-141.563-35.024v-15.078h6.485c.624 0 1.092.234 1.562.625.391.391.624.938.624 1.562v3.75c0 .626-.233 1.094-.624 1.562l-.079.079.079.078c.391.391.624.938.624 1.485v3.75c0 .625-.233 1.094-.624 1.562-.391.391-.938.625-1.562.625h-6.485zm6.485-8.594v-4.297h-4.297v4.297h4.297zm0 6.484v-4.297h-4.297v4.297h4.297zM-128.595-35.024c-.624 0-1.094-.234-1.562-.625-.391-.39-.624-.938-.624-1.562v-12.89h2.187v12.968h4.297v-12.968h2.188v12.968c0 .625-.235 1.094-.625 1.562-.391.391-.937.625-1.485.625l-4.376-.078zM-120.001-35.024v-15.078h2.188l5.391 10.781v-10.781h2.187v15.078h-2.187l-5.391-10.781v10.781h-2.188zM-108.125-35.024v-15.078h6.483c.625 0 1.094.234 1.485.625.468.391.625.938.625 1.562v10.781c0 .625-.235 1.094-.625 1.562-.391.391-.937.625-1.485.625l-6.483-.077zm6.405-2.11v-10.781h-4.297v10.781h4.297z"/></g><path fill="#FFF" d="M-139.375-69.555c-.626 0-1.094.235-1.485.625-.468.39-.625.937-.625 1.483v3.75c0 .235.078.704.312 1.094.235.391.469.547.469.547s-.312.234-.469.625c-.155.39-.234.781-.234 1.015v3.75c0 .625.234 1.094.625 1.562.391.391.938.625 1.484.625V-60.964h4.375v-2.187h-4.375v-4.297H-132.735v-2.187h-6.641v.08zM-107.111-54.399c-.624 0-1.094-.234-1.562-.625-.391-.391-.624-.938-.624-1.485v-12.968h2.186v12.968h6.485v2.188h-6.485M-117.97-54.399c-.624 0-1.092-.234-1.562-.625-.391-.391-.625-.938-.625-1.485v-12.968h2.187v12.968h6.485v2.188h-6.485M-95.235-35.024c-.625 0-1.094-.234-1.562-.625-.391-.39-.625-.938-.625-1.562v-12.89h2.188v12.968h6.483v2.188h-6.483M-80.158-47.993h2.189v-2.109h-6.485c-.624 0-1.094.234-1.485.625-.468.391-.624.938-.624 1.485v3.75c0 .234.078.625.313 1.094.233.391.469.546.469.546s-.313.235-.469.625c-.157.391-.235.781-.235 1.016V-37.133c0 .625.235 1.094.625 1.562.39.391.937.625 1.562.625h6.483v-2.188h-6.483V-41.431H-80v-2.188h-4.297v-4.375h4.139v.001z"/></svg>